# xmcd
#
# Track frame offsets: 
#        150
#        1468
#        20980
#        41235
#        58314
#        67061
#        86394
#        105605
#        123571
#        147163
#        168038
#        185751
#        204271
#        220882
#        240088
#
# Disc length: 3489 seconds
#
# Revision: 0
# Processed by: cddbd v1.5.2PL0 Copyright (c) Steve Scherf et al.
# Submitted via: ExactAudioCopy v0.99pb4
#
DISCID=d60d9f0f
DTITLE=Blaktroniks - Mechanized Soul
DYEAR=2008
DGENRE=R'n'B
TTITLE0=Blaktronics official Watermark
TTITLE1=Uhuru
TTITLE2=Open Your Heart 
TTITLE3=Precious
TTITLE4=Regenerate
TTITLE5=Back In The Days 
TTITLE6=Where
TTITLE7=Noon
TTITLE8=Angel
TTITLE9=Check Ya People
TTITLE10=Blow My Fuse
TTITLE11=Testing
TTITLE12=Give Me Room
TTITLE13=Resist and Reaction
TTITLE14=Easy Street
EXTD=
EXTT0=
EXTT1=
EXTT2=
EXTT3=
EXTT4=
EXTT5=
EXTT6=
EXTT7=
EXTT8=
EXTT9=
EXTT10=
EXTT11=
EXTT12=
EXTT13=
EXTT14=
PLAYORDER=
